<mxfile host="app.diagrams.net" modified="2022-05-17T09:24:38.373Z" agent="5.0 (Windows NT 10.0; Win64; x64) AppleWebKit/537.36 (KHTML, like Gecko) Chrome/101.0.4951.64 Safari/537.36" etag="HH0rK1g5cAlUcsCGNVin" version="18.0.0" type="github">
  <diagram id="U9p4EZudUb7xnfkOsvml" name="Page-1">
    <mxGraphModel dx="7447" dy="2673" grid="1" gridSize="10" guides="1" tooltips="1" connect="1" arrows="1" fold="1" page="0" pageScale="1" pageWidth="827" pageHeight="1169" math="0" shadow="0">
      <root>
        <mxCell id="0" />
        <mxCell id="1" parent="0" />
        <mxCell id="IWibDeRKFF8vSrctJeQr-83" value="" style="rounded=0;whiteSpace=wrap;html=1;fontSize=20;fillColor=#ffe6cc;strokeColor=#d79b00;" vertex="1" parent="1">
          <mxGeometry x="-1670" y="580" width="1670" height="250" as="geometry" />
        </mxCell>
        <mxCell id="IWibDeRKFF8vSrctJeQr-5" value="" style="edgeStyle=orthogonalEdgeStyle;rounded=0;orthogonalLoop=1;jettySize=auto;html=1;" edge="1" parent="1" target="IWibDeRKFF8vSrctJeQr-4">
          <mxGeometry relative="1" as="geometry">
            <mxPoint x="400" y="210" as="sourcePoint" />
            <Array as="points">
              <mxPoint x="400" y="230" />
            </Array>
          </mxGeometry>
        </mxCell>
        <mxCell id="IWibDeRKFF8vSrctJeQr-1" value="Visiteur&lt;br&gt;" style="shape=umlActor;verticalLabelPosition=bottom;verticalAlign=top;html=1;outlineConnect=0;fillColor=#f5f5f5;fontColor=#333333;strokeColor=#666666;" vertex="1" parent="1">
          <mxGeometry x="385" y="130" width="30" height="60" as="geometry" />
        </mxCell>
        <mxCell id="IWibDeRKFF8vSrctJeQr-15" value="" style="edgeStyle=orthogonalEdgeStyle;rounded=0;orthogonalLoop=1;jettySize=auto;html=1;" edge="1" parent="1" source="IWibDeRKFF8vSrctJeQr-4" target="IWibDeRKFF8vSrctJeQr-14">
          <mxGeometry relative="1" as="geometry">
            <Array as="points">
              <mxPoint x="400" y="715" />
              <mxPoint x="403" y="715" />
            </Array>
          </mxGeometry>
        </mxCell>
        <mxCell id="IWibDeRKFF8vSrctJeQr-19" value="" style="edgeStyle=orthogonalEdgeStyle;rounded=0;orthogonalLoop=1;jettySize=auto;html=1;fontSize=20;" edge="1" parent="1" source="IWibDeRKFF8vSrctJeQr-4" target="IWibDeRKFF8vSrctJeQr-18">
          <mxGeometry relative="1" as="geometry" />
        </mxCell>
        <mxCell id="IWibDeRKFF8vSrctJeQr-78" value="" style="edgeStyle=orthogonalEdgeStyle;rounded=0;orthogonalLoop=1;jettySize=auto;html=1;fontSize=20;" edge="1" parent="1" source="IWibDeRKFF8vSrctJeQr-4" target="IWibDeRKFF8vSrctJeQr-77">
          <mxGeometry relative="1" as="geometry" />
        </mxCell>
        <mxCell id="IWibDeRKFF8vSrctJeQr-88" value="" style="edgeStyle=orthogonalEdgeStyle;rounded=0;orthogonalLoop=1;jettySize=auto;html=1;fontSize=20;" edge="1" parent="1" source="IWibDeRKFF8vSrctJeQr-4" target="IWibDeRKFF8vSrctJeQr-87">
          <mxGeometry relative="1" as="geometry" />
        </mxCell>
        <mxCell id="IWibDeRKFF8vSrctJeQr-91" value="" style="edgeStyle=orthogonalEdgeStyle;rounded=0;orthogonalLoop=1;jettySize=auto;html=1;fontSize=20;" edge="1" parent="1" source="IWibDeRKFF8vSrctJeQr-4" target="IWibDeRKFF8vSrctJeQr-90">
          <mxGeometry relative="1" as="geometry" />
        </mxCell>
        <mxCell id="IWibDeRKFF8vSrctJeQr-121" value="" style="edgeStyle=orthogonalEdgeStyle;rounded=0;orthogonalLoop=1;jettySize=auto;html=1;fontSize=20;" edge="1" parent="1" source="IWibDeRKFF8vSrctJeQr-4" target="IWibDeRKFF8vSrctJeQr-120">
          <mxGeometry relative="1" as="geometry" />
        </mxCell>
        <mxCell id="IWibDeRKFF8vSrctJeQr-191" value="" style="edgeStyle=orthogonalEdgeStyle;rounded=0;orthogonalLoop=1;jettySize=auto;html=1;fontSize=20;" edge="1" parent="1" source="IWibDeRKFF8vSrctJeQr-4" target="IWibDeRKFF8vSrctJeQr-190">
          <mxGeometry relative="1" as="geometry" />
        </mxCell>
        <mxCell id="IWibDeRKFF8vSrctJeQr-4" value="&lt;b&gt;&lt;font style=&quot;font-size: 20px;&quot;&gt;Page d&#39;accueil&amp;nbsp;&lt;/font&gt;&lt;/b&gt;" style="rounded=1;whiteSpace=wrap;html=1;verticalAlign=top;fillColor=#f5f5f5;strokeColor=#666666;fontColor=#333333;" vertex="1" parent="1">
          <mxGeometry x="340" y="300" width="120" height="60" as="geometry" />
        </mxCell>
        <mxCell id="IWibDeRKFF8vSrctJeQr-11" style="edgeStyle=orthogonalEdgeStyle;rounded=0;orthogonalLoop=1;jettySize=auto;html=1;" edge="1" parent="1" source="IWibDeRKFF8vSrctJeQr-6" target="IWibDeRKFF8vSrctJeQr-1">
          <mxGeometry relative="1" as="geometry" />
        </mxCell>
        <mxCell id="IWibDeRKFF8vSrctJeQr-6" value="Herbal-House" style="shape=mxgraph.cisco.buildings.small_business;html=1;pointerEvents=1;dashed=0;strokeWidth=2;verticalLabelPosition=bottom;verticalAlign=top;align=center;outlineConnect=0;fillColor=#f5f5f5;fontColor=#333333;strokeColor=#666666;" vertex="1" parent="1">
          <mxGeometry x="510" y="4" width="98" height="54" as="geometry" />
        </mxCell>
        <mxCell id="IWibDeRKFF8vSrctJeQr-12" value="" style="edgeStyle=orthogonalEdgeStyle;rounded=0;orthogonalLoop=1;jettySize=auto;html=1;" edge="1" parent="1" target="IWibDeRKFF8vSrctJeQr-1">
          <mxGeometry relative="1" as="geometry">
            <mxPoint x="328" y="31.05882352941171" as="sourcePoint" />
          </mxGeometry>
        </mxCell>
        <mxCell id="IWibDeRKFF8vSrctJeQr-97" value="" style="edgeStyle=orthogonalEdgeStyle;rounded=0;orthogonalLoop=1;jettySize=auto;html=1;fontSize=20;" edge="1" parent="1" source="IWibDeRKFF8vSrctJeQr-14" target="IWibDeRKFF8vSrctJeQr-96">
          <mxGeometry relative="1" as="geometry" />
        </mxCell>
        <mxCell id="IWibDeRKFF8vSrctJeQr-101" value="" style="edgeStyle=orthogonalEdgeStyle;rounded=0;orthogonalLoop=1;jettySize=auto;html=1;fontSize=20;" edge="1" parent="1" source="IWibDeRKFF8vSrctJeQr-14" target="IWibDeRKFF8vSrctJeQr-100">
          <mxGeometry relative="1" as="geometry" />
        </mxCell>
        <mxCell id="IWibDeRKFF8vSrctJeQr-14" value="&lt;font style=&quot;font-size: 20px;&quot;&gt;Connexion&lt;/font&gt;" style="whiteSpace=wrap;html=1;verticalAlign=top;fillColor=#f5f5f5;strokeColor=#666666;rounded=1;fontColor=#333333;" vertex="1" parent="1">
          <mxGeometry x="327.5" y="1070" width="150" height="40" as="geometry" />
        </mxCell>
        <mxCell id="IWibDeRKFF8vSrctJeQr-17" value="" style="aspect=fixed;perimeter=ellipsePerimeter;html=1;align=center;shadow=0;dashed=0;spacingTop=3;image;image=img/lib/active_directory/internet_globe.svg;" vertex="1" parent="1">
          <mxGeometry x="271" y="4" width="54" height="54" as="geometry" />
        </mxCell>
        <mxCell id="IWibDeRKFF8vSrctJeQr-21" value="" style="edgeStyle=orthogonalEdgeStyle;rounded=0;orthogonalLoop=1;jettySize=auto;html=1;fontSize=20;" edge="1" parent="1" source="IWibDeRKFF8vSrctJeQr-18" target="IWibDeRKFF8vSrctJeQr-20">
          <mxGeometry relative="1" as="geometry" />
        </mxCell>
        <mxCell id="IWibDeRKFF8vSrctJeQr-23" value="" style="edgeStyle=orthogonalEdgeStyle;rounded=0;orthogonalLoop=1;jettySize=auto;html=1;fontSize=20;" edge="1" parent="1" source="IWibDeRKFF8vSrctJeQr-18" target="IWibDeRKFF8vSrctJeQr-22">
          <mxGeometry relative="1" as="geometry" />
        </mxCell>
        <mxCell id="IWibDeRKFF8vSrctJeQr-25" value="" style="edgeStyle=orthogonalEdgeStyle;rounded=0;orthogonalLoop=1;jettySize=auto;html=1;fontSize=20;" edge="1" parent="1" target="IWibDeRKFF8vSrctJeQr-24">
          <mxGeometry relative="1" as="geometry">
            <mxPoint x="-440" y="510" as="sourcePoint" />
          </mxGeometry>
        </mxCell>
        <mxCell id="IWibDeRKFF8vSrctJeQr-27" value="" style="edgeStyle=orthogonalEdgeStyle;rounded=0;orthogonalLoop=1;jettySize=auto;html=1;fontSize=20;" edge="1" parent="1" source="IWibDeRKFF8vSrctJeQr-18" target="IWibDeRKFF8vSrctJeQr-26">
          <mxGeometry relative="1" as="geometry" />
        </mxCell>
        <mxCell id="IWibDeRKFF8vSrctJeQr-29" value="" style="edgeStyle=orthogonalEdgeStyle;rounded=0;orthogonalLoop=1;jettySize=auto;html=1;fontSize=20;" edge="1" parent="1" source="IWibDeRKFF8vSrctJeQr-18" target="IWibDeRKFF8vSrctJeQr-28">
          <mxGeometry relative="1" as="geometry" />
        </mxCell>
        <mxCell id="IWibDeRKFF8vSrctJeQr-31" value="" style="edgeStyle=orthogonalEdgeStyle;rounded=0;orthogonalLoop=1;jettySize=auto;html=1;fontSize=20;" edge="1" parent="1" source="IWibDeRKFF8vSrctJeQr-18" target="IWibDeRKFF8vSrctJeQr-30">
          <mxGeometry relative="1" as="geometry" />
        </mxCell>
        <mxCell id="IWibDeRKFF8vSrctJeQr-33" value="" style="edgeStyle=orthogonalEdgeStyle;rounded=0;orthogonalLoop=1;jettySize=auto;html=1;fontSize=20;" edge="1" parent="1" source="IWibDeRKFF8vSrctJeQr-18" target="IWibDeRKFF8vSrctJeQr-32">
          <mxGeometry relative="1" as="geometry" />
        </mxCell>
        <mxCell id="IWibDeRKFF8vSrctJeQr-35" value="" style="edgeStyle=orthogonalEdgeStyle;rounded=0;orthogonalLoop=1;jettySize=auto;html=1;fontSize=20;" edge="1" parent="1" source="IWibDeRKFF8vSrctJeQr-18" target="IWibDeRKFF8vSrctJeQr-34">
          <mxGeometry relative="1" as="geometry" />
        </mxCell>
        <mxCell id="IWibDeRKFF8vSrctJeQr-37" value="" style="edgeStyle=orthogonalEdgeStyle;rounded=0;orthogonalLoop=1;jettySize=auto;html=1;fontSize=20;" edge="1" parent="1" source="IWibDeRKFF8vSrctJeQr-18" target="IWibDeRKFF8vSrctJeQr-36">
          <mxGeometry relative="1" as="geometry" />
        </mxCell>
        <mxCell id="IWibDeRKFF8vSrctJeQr-39" value="" style="edgeStyle=orthogonalEdgeStyle;rounded=0;orthogonalLoop=1;jettySize=auto;html=1;fontSize=20;" edge="1" parent="1" source="IWibDeRKFF8vSrctJeQr-18" target="IWibDeRKFF8vSrctJeQr-38">
          <mxGeometry relative="1" as="geometry" />
        </mxCell>
        <mxCell id="IWibDeRKFF8vSrctJeQr-18" value="&lt;font style=&quot;font-size: 20px;&quot;&gt;&lt;b&gt;Nos produits&lt;/b&gt;&lt;/font&gt;" style="whiteSpace=wrap;html=1;verticalAlign=top;fillColor=#CCFF99;strokeColor=#82b366;rounded=1;" vertex="1" parent="1">
          <mxGeometry x="-540" y="480" width="170" height="40" as="geometry" />
        </mxCell>
        <mxCell id="IWibDeRKFF8vSrctJeQr-133" value="" style="edgeStyle=orthogonalEdgeStyle;rounded=0;orthogonalLoop=1;jettySize=auto;html=1;fontSize=20;" edge="1" parent="1" source="IWibDeRKFF8vSrctJeQr-20" target="IWibDeRKFF8vSrctJeQr-132">
          <mxGeometry relative="1" as="geometry" />
        </mxCell>
        <mxCell id="IWibDeRKFF8vSrctJeQr-20" value="&lt;font style=&quot;font-size: 20px;&quot;&gt;Produits de la ruche&amp;nbsp;&lt;/font&gt;" style="whiteSpace=wrap;html=1;verticalAlign=top;fillColor=#f5f5f5;strokeColor=#666666;fontColor=#333333;rounded=1;" vertex="1" parent="1">
          <mxGeometry x="-830" y="610" width="120" height="60" as="geometry" />
        </mxCell>
        <mxCell id="IWibDeRKFF8vSrctJeQr-135" value="" style="edgeStyle=orthogonalEdgeStyle;rounded=0;orthogonalLoop=1;jettySize=auto;html=1;fontSize=20;" edge="1" parent="1" source="IWibDeRKFF8vSrctJeQr-22" target="IWibDeRKFF8vSrctJeQr-134">
          <mxGeometry relative="1" as="geometry" />
        </mxCell>
        <mxCell id="IWibDeRKFF8vSrctJeQr-22" value="&lt;font style=&quot;font-size: 20px;&quot;&gt;Beauté &amp;amp; hygiène&amp;nbsp;&lt;/font&gt;" style="whiteSpace=wrap;html=1;verticalAlign=top;fillColor=#f5f5f5;strokeColor=#666666;fontColor=#333333;rounded=1;" vertex="1" parent="1">
          <mxGeometry x="-670" y="610" width="120" height="60" as="geometry" />
        </mxCell>
        <mxCell id="IWibDeRKFF8vSrctJeQr-137" value="" style="edgeStyle=orthogonalEdgeStyle;rounded=0;orthogonalLoop=1;jettySize=auto;html=1;fontSize=20;" edge="1" parent="1" source="IWibDeRKFF8vSrctJeQr-24" target="IWibDeRKFF8vSrctJeQr-136">
          <mxGeometry relative="1" as="geometry" />
        </mxCell>
        <mxCell id="IWibDeRKFF8vSrctJeQr-24" value="&lt;font style=&quot;font-size: 20px;&quot;&gt;Pierres &amp;amp; cristaux&lt;/font&gt;" style="whiteSpace=wrap;html=1;verticalAlign=top;fillColor=#f5f5f5;strokeColor=#666666;fontColor=#333333;rounded=1;" vertex="1" parent="1">
          <mxGeometry x="-500" y="610" width="120" height="60" as="geometry" />
        </mxCell>
        <mxCell id="IWibDeRKFF8vSrctJeQr-131" value="" style="edgeStyle=orthogonalEdgeStyle;rounded=0;orthogonalLoop=1;jettySize=auto;html=1;fontSize=20;" edge="1" parent="1" source="IWibDeRKFF8vSrctJeQr-26" target="IWibDeRKFF8vSrctJeQr-130">
          <mxGeometry relative="1" as="geometry" />
        </mxCell>
        <mxCell id="IWibDeRKFF8vSrctJeQr-26" value="&lt;font style=&quot;font-size: 20px;&quot;&gt;Fleurs de bach&lt;/font&gt;" style="whiteSpace=wrap;html=1;verticalAlign=top;fillColor=#f5f5f5;strokeColor=#666666;fontColor=#333333;rounded=1;" vertex="1" parent="1">
          <mxGeometry x="-980" y="610" width="120" height="60" as="geometry" />
        </mxCell>
        <mxCell id="IWibDeRKFF8vSrctJeQr-129" value="" style="edgeStyle=orthogonalEdgeStyle;rounded=0;orthogonalLoop=1;jettySize=auto;html=1;fontSize=20;" edge="1" parent="1" source="IWibDeRKFF8vSrctJeQr-28" target="IWibDeRKFF8vSrctJeQr-128">
          <mxGeometry relative="1" as="geometry" />
        </mxCell>
        <mxCell id="IWibDeRKFF8vSrctJeQr-28" value="&lt;font style=&quot;font-size: 20px;&quot;&gt;Aromathérapie&lt;/font&gt;" style="whiteSpace=wrap;html=1;verticalAlign=top;fillColor=#f5f5f5;strokeColor=#666666;fontColor=#333333;rounded=1;" vertex="1" parent="1">
          <mxGeometry x="-1140" y="610" width="120" height="60" as="geometry" />
        </mxCell>
        <mxCell id="IWibDeRKFF8vSrctJeQr-139" value="" style="edgeStyle=orthogonalEdgeStyle;rounded=0;orthogonalLoop=1;jettySize=auto;html=1;fontSize=20;" edge="1" parent="1" source="IWibDeRKFF8vSrctJeQr-30" target="IWibDeRKFF8vSrctJeQr-138">
          <mxGeometry relative="1" as="geometry" />
        </mxCell>
        <mxCell id="IWibDeRKFF8vSrctJeQr-30" value="&lt;font style=&quot;font-size: 20px;&quot;&gt;Esotérisme et Feng Shui&lt;/font&gt;" style="whiteSpace=wrap;html=1;verticalAlign=top;fillColor=#f5f5f5;strokeColor=#666666;fontColor=#333333;rounded=1;" vertex="1" parent="1">
          <mxGeometry x="-350" y="610" width="120" height="60" as="geometry" />
        </mxCell>
        <mxCell id="IWibDeRKFF8vSrctJeQr-127" value="" style="edgeStyle=orthogonalEdgeStyle;rounded=0;orthogonalLoop=1;jettySize=auto;html=1;fontSize=20;" edge="1" parent="1" source="IWibDeRKFF8vSrctJeQr-32" target="IWibDeRKFF8vSrctJeQr-126">
          <mxGeometry relative="1" as="geometry" />
        </mxCell>
        <mxCell id="IWibDeRKFF8vSrctJeQr-32" value="&lt;font style=&quot;font-size: 20px;&quot;&gt;Gemmothérapie&lt;/font&gt;" style="whiteSpace=wrap;html=1;verticalAlign=top;fillColor=#f5f5f5;strokeColor=#666666;fontColor=#333333;rounded=1;" vertex="1" parent="1">
          <mxGeometry x="-1290" y="610" width="120" height="60" as="geometry" />
        </mxCell>
        <mxCell id="IWibDeRKFF8vSrctJeQr-125" value="" style="edgeStyle=orthogonalEdgeStyle;rounded=0;orthogonalLoop=1;jettySize=auto;html=1;fontSize=20;" edge="1" parent="1" source="IWibDeRKFF8vSrctJeQr-34" target="IWibDeRKFF8vSrctJeQr-124">
          <mxGeometry relative="1" as="geometry" />
        </mxCell>
        <mxCell id="IWibDeRKFF8vSrctJeQr-34" value="&lt;font style=&quot;font-size: 20px;&quot;&gt;Plantes&lt;/font&gt;" style="whiteSpace=wrap;html=1;verticalAlign=top;fillColor=#f5f5f5;strokeColor=#666666;fontColor=#333333;rounded=1;" vertex="1" parent="1">
          <mxGeometry x="-1440" y="610" width="120" height="60" as="geometry" />
        </mxCell>
        <mxCell id="IWibDeRKFF8vSrctJeQr-123" value="" style="edgeStyle=orthogonalEdgeStyle;rounded=0;orthogonalLoop=1;jettySize=auto;html=1;fontSize=20;" edge="1" parent="1" source="IWibDeRKFF8vSrctJeQr-36" target="IWibDeRKFF8vSrctJeQr-122">
          <mxGeometry relative="1" as="geometry" />
        </mxCell>
        <mxCell id="IWibDeRKFF8vSrctJeQr-36" value="&lt;font style=&quot;font-size: 20px;&quot;&gt;Compléments alimentaire&lt;/font&gt;" style="whiteSpace=wrap;html=1;verticalAlign=top;fillColor=#f5f5f5;strokeColor=#666666;fontColor=#333333;rounded=1;" vertex="1" parent="1">
          <mxGeometry x="-1580" y="610" width="120" height="60" as="geometry" />
        </mxCell>
        <mxCell id="IWibDeRKFF8vSrctJeQr-141" value="" style="edgeStyle=orthogonalEdgeStyle;rounded=0;orthogonalLoop=1;jettySize=auto;html=1;fontSize=20;" edge="1" parent="1" source="IWibDeRKFF8vSrctJeQr-38" target="IWibDeRKFF8vSrctJeQr-140">
          <mxGeometry relative="1" as="geometry" />
        </mxCell>
        <mxCell id="IWibDeRKFF8vSrctJeQr-38" value="&lt;font style=&quot;font-size: 20px;&quot;&gt;Maison&lt;/font&gt;" style="whiteSpace=wrap;html=1;verticalAlign=top;fillColor=#f5f5f5;strokeColor=#666666;fontColor=#333333;rounded=1;" vertex="1" parent="1">
          <mxGeometry x="-180" y="610" width="120" height="60" as="geometry" />
        </mxCell>
        <mxCell id="IWibDeRKFF8vSrctJeQr-80" value="" style="edgeStyle=orthogonalEdgeStyle;rounded=0;orthogonalLoop=1;jettySize=auto;html=1;fontSize=20;" edge="1" parent="1" source="IWibDeRKFF8vSrctJeQr-77" target="IWibDeRKFF8vSrctJeQr-79">
          <mxGeometry relative="1" as="geometry" />
        </mxCell>
        <mxCell id="IWibDeRKFF8vSrctJeQr-81" style="edgeStyle=orthogonalEdgeStyle;rounded=0;orthogonalLoop=1;jettySize=auto;html=1;entryX=0.75;entryY=0;entryDx=0;entryDy=0;fontSize=20;" edge="1" parent="1" source="IWibDeRKFF8vSrctJeQr-77" target="IWibDeRKFF8vSrctJeQr-18">
          <mxGeometry relative="1" as="geometry" />
        </mxCell>
        <mxCell id="IWibDeRKFF8vSrctJeQr-77" value="&lt;font style=&quot;font-size: 20px;&quot;&gt;&lt;b&gt;Blog&lt;/b&gt;&lt;/font&gt;" style="whiteSpace=wrap;html=1;verticalAlign=top;fillColor=#f5f5f5;strokeColor=#666666;fontColor=#333333;rounded=1;" vertex="1" parent="1">
          <mxGeometry x="680" y="440" width="120" height="40" as="geometry" />
        </mxCell>
        <mxCell id="IWibDeRKFF8vSrctJeQr-84" style="edgeStyle=orthogonalEdgeStyle;rounded=0;orthogonalLoop=1;jettySize=auto;html=1;entryX=1;entryY=0.5;entryDx=0;entryDy=0;fontSize=20;" edge="1" parent="1" source="IWibDeRKFF8vSrctJeQr-79" target="IWibDeRKFF8vSrctJeQr-83">
          <mxGeometry relative="1" as="geometry" />
        </mxCell>
        <mxCell id="IWibDeRKFF8vSrctJeQr-105" value="" style="edgeStyle=orthogonalEdgeStyle;rounded=0;orthogonalLoop=1;jettySize=auto;html=1;fontSize=20;" edge="1" parent="1" source="IWibDeRKFF8vSrctJeQr-79" target="IWibDeRKFF8vSrctJeQr-104">
          <mxGeometry relative="1" as="geometry" />
        </mxCell>
        <mxCell id="IWibDeRKFF8vSrctJeQr-79" value="&lt;font style=&quot;font-size: 20px;&quot;&gt;&lt;b&gt;Articles&amp;nbsp;&lt;/b&gt;&lt;/font&gt;" style="whiteSpace=wrap;html=1;verticalAlign=top;fillColor=#ffe6cc;strokeColor=#d79b00;rounded=1;" vertex="1" parent="1">
          <mxGeometry x="680" y="610" width="120" height="40" as="geometry" />
        </mxCell>
        <mxCell id="IWibDeRKFF8vSrctJeQr-89" style="edgeStyle=orthogonalEdgeStyle;rounded=0;orthogonalLoop=1;jettySize=auto;html=1;fontSize=20;" edge="1" parent="1" source="IWibDeRKFF8vSrctJeQr-87" target="IWibDeRKFF8vSrctJeQr-6">
          <mxGeometry relative="1" as="geometry">
            <Array as="points">
              <mxPoint x="1500" y="31" />
            </Array>
          </mxGeometry>
        </mxCell>
        <mxCell id="IWibDeRKFF8vSrctJeQr-87" value="&lt;font style=&quot;font-size: 20px;&quot;&gt;Contact&lt;/font&gt;" style="whiteSpace=wrap;html=1;verticalAlign=top;fillColor=#f5f5f5;strokeColor=#666666;fontColor=#333333;rounded=1;" vertex="1" parent="1">
          <mxGeometry x="1400" y="440" width="120" height="70" as="geometry" />
        </mxCell>
        <mxCell id="IWibDeRKFF8vSrctJeQr-95" value="" style="edgeStyle=orthogonalEdgeStyle;rounded=0;orthogonalLoop=1;jettySize=auto;html=1;fontSize=20;" edge="1" parent="1" source="IWibDeRKFF8vSrctJeQr-90" target="IWibDeRKFF8vSrctJeQr-94">
          <mxGeometry relative="1" as="geometry" />
        </mxCell>
        <mxCell id="IWibDeRKFF8vSrctJeQr-90" value="&lt;font style=&quot;font-size: 20px;&quot;&gt;&lt;b&gt;Coaching&lt;/b&gt;&lt;/font&gt;" style="whiteSpace=wrap;html=1;verticalAlign=top;fillColor=#f5f5f5;strokeColor=#666666;fontColor=#333333;rounded=1;" vertex="1" parent="1">
          <mxGeometry x="1040" y="430" width="140" height="40" as="geometry" />
        </mxCell>
        <mxCell id="IWibDeRKFF8vSrctJeQr-99" style="edgeStyle=orthogonalEdgeStyle;rounded=0;orthogonalLoop=1;jettySize=auto;html=1;fontSize=20;" edge="1" parent="1" source="IWibDeRKFF8vSrctJeQr-94">
          <mxGeometry relative="1" as="geometry">
            <mxPoint x="400" y="830" as="targetPoint" />
            <Array as="points">
              <mxPoint x="1110" y="830" />
            </Array>
          </mxGeometry>
        </mxCell>
        <mxCell id="IWibDeRKFF8vSrctJeQr-94" value="&lt;font style=&quot;font-size: 20px;&quot;&gt;Prendre rdv&amp;nbsp;&lt;/font&gt;" style="whiteSpace=wrap;html=1;verticalAlign=top;fillColor=#f5f5f5;strokeColor=#666666;fontColor=#333333;rounded=1;" vertex="1" parent="1">
          <mxGeometry x="1050" y="620" width="120" height="40" as="geometry" />
        </mxCell>
        <mxCell id="IWibDeRKFF8vSrctJeQr-103" value="" style="edgeStyle=orthogonalEdgeStyle;rounded=0;orthogonalLoop=1;jettySize=auto;html=1;fontSize=20;" edge="1" parent="1" source="IWibDeRKFF8vSrctJeQr-96" target="IWibDeRKFF8vSrctJeQr-102">
          <mxGeometry relative="1" as="geometry" />
        </mxCell>
        <mxCell id="IWibDeRKFF8vSrctJeQr-96" value="&lt;font style=&quot;font-size: 20px;&quot;&gt;S&#39;inscrire&lt;/font&gt;" style="whiteSpace=wrap;html=1;verticalAlign=top;fillColor=#f5f5f5;strokeColor=#666666;fontColor=#333333;rounded=1;" vertex="1" parent="1">
          <mxGeometry x="762.5" y="1070" width="120" height="40" as="geometry" />
        </mxCell>
        <mxCell id="IWibDeRKFF8vSrctJeQr-109" value="" style="edgeStyle=orthogonalEdgeStyle;rounded=0;orthogonalLoop=1;jettySize=auto;html=1;fontSize=20;" edge="1" parent="1" source="IWibDeRKFF8vSrctJeQr-100" target="IWibDeRKFF8vSrctJeQr-108">
          <mxGeometry relative="1" as="geometry" />
        </mxCell>
        <mxCell id="IWibDeRKFF8vSrctJeQr-100" value="&lt;font style=&quot;font-size: 20px;&quot;&gt;Se connecter&lt;/font&gt;" style="whiteSpace=wrap;html=1;verticalAlign=top;fillColor=#f5f5f5;strokeColor=#666666;fontColor=#333333;rounded=1;" vertex="1" parent="1">
          <mxGeometry x="-27.5" y="1160" width="110" height="60" as="geometry" />
        </mxCell>
        <mxCell id="IWibDeRKFF8vSrctJeQr-107" value="" style="edgeStyle=orthogonalEdgeStyle;rounded=0;orthogonalLoop=1;jettySize=auto;html=1;fontSize=20;" edge="1" parent="1" source="IWibDeRKFF8vSrctJeQr-102" target="IWibDeRKFF8vSrctJeQr-106">
          <mxGeometry relative="1" as="geometry" />
        </mxCell>
        <mxCell id="IWibDeRKFF8vSrctJeQr-102" value="&lt;font style=&quot;font-size: 20px;&quot;&gt;Formulaire d&#39;inscription&lt;/font&gt;" style="whiteSpace=wrap;html=1;verticalAlign=top;fillColor=#f5f5f5;strokeColor=#666666;fontColor=#333333;rounded=1;" vertex="1" parent="1">
          <mxGeometry x="762.5" y="1180" width="120" height="60" as="geometry" />
        </mxCell>
        <mxCell id="IWibDeRKFF8vSrctJeQr-172" style="edgeStyle=orthogonalEdgeStyle;rounded=0;orthogonalLoop=1;jettySize=auto;html=1;entryX=0.75;entryY=0;entryDx=0;entryDy=0;fontSize=20;" edge="1" parent="1" source="IWibDeRKFF8vSrctJeQr-104" target="IWibDeRKFF8vSrctJeQr-14">
          <mxGeometry relative="1" as="geometry" />
        </mxCell>
        <mxCell id="IWibDeRKFF8vSrctJeQr-104" value="&lt;font style=&quot;font-size: 20px;&quot;&gt;Inscription Newsletter&lt;/font&gt;" style="whiteSpace=wrap;html=1;verticalAlign=top;fillColor=#ffe6cc;strokeColor=#d79b00;rounded=1;" vertex="1" parent="1">
          <mxGeometry x="680" y="730" width="120" height="60" as="geometry" />
        </mxCell>
        <mxCell id="IWibDeRKFF8vSrctJeQr-173" style="edgeStyle=orthogonalEdgeStyle;rounded=0;orthogonalLoop=1;jettySize=auto;html=1;entryX=1;entryY=0.5;entryDx=0;entryDy=0;fontSize=20;" edge="1" parent="1" source="IWibDeRKFF8vSrctJeQr-106" target="IWibDeRKFF8vSrctJeQr-100">
          <mxGeometry relative="1" as="geometry" />
        </mxCell>
        <mxCell id="IWibDeRKFF8vSrctJeQr-106" value="&lt;font style=&quot;font-size: 20px;&quot;&gt;Compte crée&lt;/font&gt;" style="whiteSpace=wrap;html=1;verticalAlign=top;fillColor=#f5f5f5;strokeColor=#666666;fontColor=#333333;rounded=1;" vertex="1" parent="1">
          <mxGeometry x="772.5" y="1310" width="100" height="60" as="geometry" />
        </mxCell>
        <mxCell id="IWibDeRKFF8vSrctJeQr-111" value="" style="edgeStyle=orthogonalEdgeStyle;rounded=0;orthogonalLoop=1;jettySize=auto;html=1;fontSize=20;" edge="1" parent="1" source="IWibDeRKFF8vSrctJeQr-108" target="IWibDeRKFF8vSrctJeQr-110">
          <mxGeometry relative="1" as="geometry" />
        </mxCell>
        <mxCell id="IWibDeRKFF8vSrctJeQr-182" value="" style="edgeStyle=orthogonalEdgeStyle;rounded=0;orthogonalLoop=1;jettySize=auto;html=1;fontSize=20;" edge="1" parent="1" source="IWibDeRKFF8vSrctJeQr-108" target="IWibDeRKFF8vSrctJeQr-181">
          <mxGeometry relative="1" as="geometry" />
        </mxCell>
        <mxCell id="IWibDeRKFF8vSrctJeQr-108" value="&lt;font style=&quot;font-size: 20px;&quot;&gt;Page cliente&amp;nbsp;&lt;/font&gt;" style="whiteSpace=wrap;html=1;verticalAlign=top;fillColor=#f5f5f5;strokeColor=#666666;fontColor=#333333;rounded=1;" vertex="1" parent="1">
          <mxGeometry x="-30" y="1310" width="115" height="60" as="geometry" />
        </mxCell>
        <mxCell id="IWibDeRKFF8vSrctJeQr-113" value="" style="edgeStyle=orthogonalEdgeStyle;rounded=0;orthogonalLoop=1;jettySize=auto;html=1;fontSize=20;" edge="1" parent="1" source="IWibDeRKFF8vSrctJeQr-110" target="IWibDeRKFF8vSrctJeQr-112">
          <mxGeometry relative="1" as="geometry" />
        </mxCell>
        <mxCell id="IWibDeRKFF8vSrctJeQr-179" style="edgeStyle=orthogonalEdgeStyle;rounded=0;orthogonalLoop=1;jettySize=auto;html=1;entryX=0;entryY=0.75;entryDx=0;entryDy=0;fontSize=20;" edge="1" parent="1" source="IWibDeRKFF8vSrctJeQr-110" target="IWibDeRKFF8vSrctJeQr-83">
          <mxGeometry relative="1" as="geometry" />
        </mxCell>
        <mxCell id="IWibDeRKFF8vSrctJeQr-180" value="Suggestion de produits" style="edgeLabel;html=1;align=center;verticalAlign=middle;resizable=0;points=[];fontSize=20;" vertex="1" connectable="0" parent="IWibDeRKFF8vSrctJeQr-179">
          <mxGeometry x="-0.0002" y="6" relative="1" as="geometry">
            <mxPoint as="offset" />
          </mxGeometry>
        </mxCell>
        <mxCell id="IWibDeRKFF8vSrctJeQr-110" value="&lt;font style=&quot;font-size: 20px;&quot;&gt;Panier&amp;nbsp;&lt;/font&gt;" style="whiteSpace=wrap;html=1;verticalAlign=top;fillColor=#f5f5f5;strokeColor=#666666;fontColor=#333333;rounded=1;" vertex="1" parent="1">
          <mxGeometry x="-240" y="1310" width="120" height="60" as="geometry" />
        </mxCell>
        <mxCell id="IWibDeRKFF8vSrctJeQr-115" value="" style="edgeStyle=orthogonalEdgeStyle;rounded=0;orthogonalLoop=1;jettySize=auto;html=1;fontSize=20;" edge="1" parent="1" source="IWibDeRKFF8vSrctJeQr-112" target="IWibDeRKFF8vSrctJeQr-114">
          <mxGeometry relative="1" as="geometry" />
        </mxCell>
        <mxCell id="IWibDeRKFF8vSrctJeQr-112" value="&lt;font style=&quot;font-size: 20px;&quot;&gt;Informations de livraison&lt;/font&gt;" style="whiteSpace=wrap;html=1;verticalAlign=top;fillColor=#f5f5f5;strokeColor=#666666;fontColor=#333333;rounded=1;" vertex="1" parent="1">
          <mxGeometry x="-240" y="1450" width="120" height="60" as="geometry" />
        </mxCell>
        <mxCell id="IWibDeRKFF8vSrctJeQr-117" value="" style="edgeStyle=orthogonalEdgeStyle;rounded=0;orthogonalLoop=1;jettySize=auto;html=1;fontSize=20;" edge="1" parent="1" source="IWibDeRKFF8vSrctJeQr-114" target="IWibDeRKFF8vSrctJeQr-116">
          <mxGeometry relative="1" as="geometry" />
        </mxCell>
        <mxCell id="IWibDeRKFF8vSrctJeQr-114" value="&lt;font style=&quot;font-size: 20px;&quot;&gt;Informations bancaires&amp;nbsp;&lt;/font&gt;" style="whiteSpace=wrap;html=1;verticalAlign=top;fillColor=#f5f5f5;strokeColor=#666666;fontColor=#333333;rounded=1;" vertex="1" parent="1">
          <mxGeometry x="-240" y="1590" width="120" height="60" as="geometry" />
        </mxCell>
        <mxCell id="IWibDeRKFF8vSrctJeQr-119" value="" style="edgeStyle=orthogonalEdgeStyle;rounded=0;orthogonalLoop=1;jettySize=auto;html=1;fontSize=20;" edge="1" parent="1" source="IWibDeRKFF8vSrctJeQr-116" target="IWibDeRKFF8vSrctJeQr-118">
          <mxGeometry relative="1" as="geometry" />
        </mxCell>
        <mxCell id="IWibDeRKFF8vSrctJeQr-189" style="edgeStyle=orthogonalEdgeStyle;rounded=0;orthogonalLoop=1;jettySize=auto;html=1;entryX=0;entryY=1;entryDx=0;entryDy=0;fontSize=20;" edge="1" parent="1" source="IWibDeRKFF8vSrctJeQr-116" target="IWibDeRKFF8vSrctJeQr-4">
          <mxGeometry relative="1" as="geometry">
            <Array as="points">
              <mxPoint x="-1770" y="1760" />
              <mxPoint x="-1770" y="280" />
              <mxPoint x="340" y="280" />
            </Array>
          </mxGeometry>
        </mxCell>
        <mxCell id="IWibDeRKFF8vSrctJeQr-116" value="&lt;font style=&quot;font-size: 20px;&quot;&gt;Paiement&amp;nbsp;&lt;/font&gt;" style="whiteSpace=wrap;html=1;verticalAlign=top;fillColor=#f5f5f5;strokeColor=#666666;fontColor=#333333;rounded=1;" vertex="1" parent="1">
          <mxGeometry x="-32.5" y="1730" width="120" height="60" as="geometry" />
        </mxCell>
        <mxCell id="IWibDeRKFF8vSrctJeQr-188" style="edgeStyle=orthogonalEdgeStyle;rounded=0;orthogonalLoop=1;jettySize=auto;html=1;entryX=1;entryY=0.5;entryDx=0;entryDy=0;fontSize=20;" edge="1" parent="1" source="IWibDeRKFF8vSrctJeQr-118" target="IWibDeRKFF8vSrctJeQr-104">
          <mxGeometry relative="1" as="geometry">
            <Array as="points">
              <mxPoint x="1090" y="1900" />
              <mxPoint x="1090" y="760" />
            </Array>
          </mxGeometry>
        </mxCell>
        <mxCell id="IWibDeRKFF8vSrctJeQr-118" value="&lt;font style=&quot;font-size: 20px;&quot;&gt;Confirmation par mail&amp;nbsp;&lt;/font&gt;" style="whiteSpace=wrap;html=1;verticalAlign=top;fillColor=#f5f5f5;strokeColor=#666666;fontColor=#333333;rounded=1;" vertex="1" parent="1">
          <mxGeometry x="-32.5" y="1870" width="120" height="60" as="geometry" />
        </mxCell>
        <mxCell id="IWibDeRKFF8vSrctJeQr-120" value="&lt;font style=&quot;font-size: 20px;&quot;&gt;Recherche produit&amp;nbsp;&lt;/font&gt;" style="whiteSpace=wrap;html=1;verticalAlign=top;fillColor=#f5f5f5;strokeColor=#666666;fontColor=#333333;rounded=1;" vertex="1" parent="1">
          <mxGeometry x="140" y="480" width="120" height="60" as="geometry" />
        </mxCell>
        <mxCell id="IWibDeRKFF8vSrctJeQr-143" value="" style="edgeStyle=orthogonalEdgeStyle;rounded=0;orthogonalLoop=1;jettySize=auto;html=1;fontSize=20;" edge="1" parent="1" source="IWibDeRKFF8vSrctJeQr-122" target="IWibDeRKFF8vSrctJeQr-142">
          <mxGeometry relative="1" as="geometry" />
        </mxCell>
        <mxCell id="IWibDeRKFF8vSrctJeQr-122" value="&lt;font style=&quot;font-size: 20px;&quot;&gt;Produits&lt;/font&gt;" style="whiteSpace=wrap;html=1;verticalAlign=top;fillColor=#f5f5f5;strokeColor=#666666;fontColor=#333333;rounded=1;" vertex="1" parent="1">
          <mxGeometry x="-1580" y="750" width="120" height="60" as="geometry" />
        </mxCell>
        <mxCell id="IWibDeRKFF8vSrctJeQr-145" value="" style="edgeStyle=orthogonalEdgeStyle;rounded=0;orthogonalLoop=1;jettySize=auto;html=1;fontSize=20;" edge="1" parent="1" source="IWibDeRKFF8vSrctJeQr-124" target="IWibDeRKFF8vSrctJeQr-144">
          <mxGeometry relative="1" as="geometry" />
        </mxCell>
        <mxCell id="IWibDeRKFF8vSrctJeQr-124" value="&#xa;&lt;span style=&quot;color: rgb(51, 51, 51); font-family: Helvetica; font-size: 20px; font-style: normal; font-variant-ligatures: normal; font-variant-caps: normal; font-weight: 400; letter-spacing: normal; orphans: 2; text-align: center; text-indent: 0px; text-transform: none; widows: 2; word-spacing: 0px; -webkit-text-stroke-width: 0px; background-color: rgb(255, 255, 255); text-decoration-thickness: initial; text-decoration-style: initial; text-decoration-color: initial; float: none; display: inline !important;&quot;&gt;Produits&lt;/span&gt;&#xa;&#xa;" style="whiteSpace=wrap;html=1;verticalAlign=top;fillColor=#f5f5f5;strokeColor=#666666;fontColor=#333333;rounded=1;" vertex="1" parent="1">
          <mxGeometry x="-1440" y="750" width="120" height="60" as="geometry" />
        </mxCell>
        <mxCell id="IWibDeRKFF8vSrctJeQr-147" value="" style="edgeStyle=orthogonalEdgeStyle;rounded=0;orthogonalLoop=1;jettySize=auto;html=1;fontSize=20;" edge="1" parent="1" source="IWibDeRKFF8vSrctJeQr-126" target="IWibDeRKFF8vSrctJeQr-146">
          <mxGeometry relative="1" as="geometry" />
        </mxCell>
        <mxCell id="IWibDeRKFF8vSrctJeQr-126" value="&#xa;&lt;span style=&quot;color: rgb(51, 51, 51); font-family: Helvetica; font-size: 20px; font-style: normal; font-variant-ligatures: normal; font-variant-caps: normal; font-weight: 400; letter-spacing: normal; orphans: 2; text-align: center; text-indent: 0px; text-transform: none; widows: 2; word-spacing: 0px; -webkit-text-stroke-width: 0px; background-color: rgb(255, 255, 255); text-decoration-thickness: initial; text-decoration-style: initial; text-decoration-color: initial; float: none; display: inline !important;&quot;&gt;Produits&lt;/span&gt;&#xa;&#xa;" style="whiteSpace=wrap;html=1;verticalAlign=top;fillColor=#f5f5f5;strokeColor=#666666;fontColor=#333333;rounded=1;" vertex="1" parent="1">
          <mxGeometry x="-1290" y="750" width="120" height="60" as="geometry" />
        </mxCell>
        <mxCell id="IWibDeRKFF8vSrctJeQr-149" value="" style="edgeStyle=orthogonalEdgeStyle;rounded=0;orthogonalLoop=1;jettySize=auto;html=1;fontSize=20;" edge="1" parent="1" source="IWibDeRKFF8vSrctJeQr-128" target="IWibDeRKFF8vSrctJeQr-148">
          <mxGeometry relative="1" as="geometry" />
        </mxCell>
        <mxCell id="IWibDeRKFF8vSrctJeQr-128" value="&#xa;&lt;span style=&quot;color: rgb(51, 51, 51); font-family: Helvetica; font-size: 20px; font-style: normal; font-variant-ligatures: normal; font-variant-caps: normal; font-weight: 400; letter-spacing: normal; orphans: 2; text-align: center; text-indent: 0px; text-transform: none; widows: 2; word-spacing: 0px; -webkit-text-stroke-width: 0px; background-color: rgb(255, 255, 255); text-decoration-thickness: initial; text-decoration-style: initial; text-decoration-color: initial; float: none; display: inline !important;&quot;&gt;Produits&lt;/span&gt;&#xa;&#xa;" style="whiteSpace=wrap;html=1;verticalAlign=top;fillColor=#f5f5f5;strokeColor=#666666;fontColor=#333333;rounded=1;" vertex="1" parent="1">
          <mxGeometry x="-1140" y="750" width="120" height="60" as="geometry" />
        </mxCell>
        <mxCell id="IWibDeRKFF8vSrctJeQr-151" value="" style="edgeStyle=orthogonalEdgeStyle;rounded=0;orthogonalLoop=1;jettySize=auto;html=1;fontSize=20;" edge="1" parent="1" source="IWibDeRKFF8vSrctJeQr-130" target="IWibDeRKFF8vSrctJeQr-150">
          <mxGeometry relative="1" as="geometry" />
        </mxCell>
        <mxCell id="IWibDeRKFF8vSrctJeQr-130" value="&#xa;&lt;span style=&quot;color: rgb(51, 51, 51); font-family: Helvetica; font-size: 20px; font-style: normal; font-variant-ligatures: normal; font-variant-caps: normal; font-weight: 400; letter-spacing: normal; orphans: 2; text-align: center; text-indent: 0px; text-transform: none; widows: 2; word-spacing: 0px; -webkit-text-stroke-width: 0px; background-color: rgb(255, 255, 255); text-decoration-thickness: initial; text-decoration-style: initial; text-decoration-color: initial; float: none; display: inline !important;&quot;&gt;Produits&lt;/span&gt;&#xa;&#xa;" style="whiteSpace=wrap;html=1;verticalAlign=top;fillColor=#f5f5f5;strokeColor=#666666;fontColor=#333333;rounded=1;" vertex="1" parent="1">
          <mxGeometry x="-980" y="750" width="120" height="60" as="geometry" />
        </mxCell>
        <mxCell id="IWibDeRKFF8vSrctJeQr-153" value="" style="edgeStyle=orthogonalEdgeStyle;rounded=0;orthogonalLoop=1;jettySize=auto;html=1;fontSize=20;" edge="1" parent="1" source="IWibDeRKFF8vSrctJeQr-132" target="IWibDeRKFF8vSrctJeQr-152">
          <mxGeometry relative="1" as="geometry" />
        </mxCell>
        <mxCell id="IWibDeRKFF8vSrctJeQr-132" value="&#xa;&lt;span style=&quot;color: rgb(51, 51, 51); font-family: Helvetica; font-size: 20px; font-style: normal; font-variant-ligatures: normal; font-variant-caps: normal; font-weight: 400; letter-spacing: normal; orphans: 2; text-align: center; text-indent: 0px; text-transform: none; widows: 2; word-spacing: 0px; -webkit-text-stroke-width: 0px; background-color: rgb(255, 255, 255); text-decoration-thickness: initial; text-decoration-style: initial; text-decoration-color: initial; float: none; display: inline !important;&quot;&gt;Produits&lt;/span&gt;&#xa;&#xa;" style="whiteSpace=wrap;html=1;verticalAlign=top;fillColor=#f5f5f5;strokeColor=#666666;fontColor=#333333;rounded=1;" vertex="1" parent="1">
          <mxGeometry x="-830" y="750" width="120" height="60" as="geometry" />
        </mxCell>
        <mxCell id="IWibDeRKFF8vSrctJeQr-155" value="" style="edgeStyle=orthogonalEdgeStyle;rounded=0;orthogonalLoop=1;jettySize=auto;html=1;fontSize=20;" edge="1" parent="1" source="IWibDeRKFF8vSrctJeQr-134" target="IWibDeRKFF8vSrctJeQr-154">
          <mxGeometry relative="1" as="geometry" />
        </mxCell>
        <mxCell id="IWibDeRKFF8vSrctJeQr-134" value="&#xa;&lt;span style=&quot;color: rgb(51, 51, 51); font-family: Helvetica; font-size: 20px; font-style: normal; font-variant-ligatures: normal; font-variant-caps: normal; font-weight: 400; letter-spacing: normal; orphans: 2; text-align: center; text-indent: 0px; text-transform: none; widows: 2; word-spacing: 0px; -webkit-text-stroke-width: 0px; background-color: rgb(255, 255, 255); text-decoration-thickness: initial; text-decoration-style: initial; text-decoration-color: initial; float: none; display: inline !important;&quot;&gt;Produits&lt;/span&gt;&#xa;&#xa;" style="whiteSpace=wrap;html=1;verticalAlign=top;fillColor=#f5f5f5;strokeColor=#666666;fontColor=#333333;rounded=1;" vertex="1" parent="1">
          <mxGeometry x="-670" y="750" width="120" height="60" as="geometry" />
        </mxCell>
        <mxCell id="IWibDeRKFF8vSrctJeQr-157" value="" style="edgeStyle=orthogonalEdgeStyle;rounded=0;orthogonalLoop=1;jettySize=auto;html=1;fontSize=20;" edge="1" parent="1" source="IWibDeRKFF8vSrctJeQr-136" target="IWibDeRKFF8vSrctJeQr-156">
          <mxGeometry relative="1" as="geometry" />
        </mxCell>
        <mxCell id="IWibDeRKFF8vSrctJeQr-136" value="&#xa;&lt;span style=&quot;color: rgb(51, 51, 51); font-family: Helvetica; font-size: 20px; font-style: normal; font-variant-ligatures: normal; font-variant-caps: normal; font-weight: 400; letter-spacing: normal; orphans: 2; text-align: center; text-indent: 0px; text-transform: none; widows: 2; word-spacing: 0px; -webkit-text-stroke-width: 0px; background-color: rgb(255, 255, 255); text-decoration-thickness: initial; text-decoration-style: initial; text-decoration-color: initial; float: none; display: inline !important;&quot;&gt;Produits&lt;/span&gt;&#xa;&#xa;" style="whiteSpace=wrap;html=1;verticalAlign=top;fillColor=#f5f5f5;strokeColor=#666666;fontColor=#333333;rounded=1;" vertex="1" parent="1">
          <mxGeometry x="-500" y="750" width="120" height="60" as="geometry" />
        </mxCell>
        <mxCell id="IWibDeRKFF8vSrctJeQr-159" value="" style="edgeStyle=orthogonalEdgeStyle;rounded=0;orthogonalLoop=1;jettySize=auto;html=1;fontSize=20;" edge="1" parent="1" source="IWibDeRKFF8vSrctJeQr-138" target="IWibDeRKFF8vSrctJeQr-158">
          <mxGeometry relative="1" as="geometry" />
        </mxCell>
        <mxCell id="IWibDeRKFF8vSrctJeQr-138" value="&#xa;&lt;span style=&quot;color: rgb(51, 51, 51); font-family: Helvetica; font-size: 20px; font-style: normal; font-variant-ligatures: normal; font-variant-caps: normal; font-weight: 400; letter-spacing: normal; orphans: 2; text-align: center; text-indent: 0px; text-transform: none; widows: 2; word-spacing: 0px; -webkit-text-stroke-width: 0px; background-color: rgb(255, 255, 255); text-decoration-thickness: initial; text-decoration-style: initial; text-decoration-color: initial; float: none; display: inline !important;&quot;&gt;Produits&lt;/span&gt;&#xa;&#xa;" style="whiteSpace=wrap;html=1;verticalAlign=top;fillColor=#f5f5f5;strokeColor=#666666;fontColor=#333333;rounded=1;" vertex="1" parent="1">
          <mxGeometry x="-350" y="750" width="120" height="60" as="geometry" />
        </mxCell>
        <mxCell id="IWibDeRKFF8vSrctJeQr-161" value="" style="edgeStyle=orthogonalEdgeStyle;rounded=0;orthogonalLoop=1;jettySize=auto;html=1;fontSize=20;" edge="1" parent="1" source="IWibDeRKFF8vSrctJeQr-140" target="IWibDeRKFF8vSrctJeQr-160">
          <mxGeometry relative="1" as="geometry" />
        </mxCell>
        <mxCell id="IWibDeRKFF8vSrctJeQr-140" value="&#xa;&lt;span style=&quot;color: rgb(51, 51, 51); font-family: Helvetica; font-size: 20px; font-style: normal; font-variant-ligatures: normal; font-variant-caps: normal; font-weight: 400; letter-spacing: normal; orphans: 2; text-align: center; text-indent: 0px; text-transform: none; widows: 2; word-spacing: 0px; -webkit-text-stroke-width: 0px; background-color: rgb(255, 255, 255); text-decoration-thickness: initial; text-decoration-style: initial; text-decoration-color: initial; float: none; display: inline !important;&quot;&gt;Produits&lt;/span&gt;&#xa;&#xa;" style="whiteSpace=wrap;html=1;verticalAlign=top;fillColor=#f5f5f5;strokeColor=#666666;fontColor=#333333;rounded=1;" vertex="1" parent="1">
          <mxGeometry x="-180" y="750" width="120" height="60" as="geometry" />
        </mxCell>
        <mxCell id="IWibDeRKFF8vSrctJeQr-170" style="edgeStyle=orthogonalEdgeStyle;rounded=0;orthogonalLoop=1;jettySize=auto;html=1;entryX=0.25;entryY=0;entryDx=0;entryDy=0;fontSize=20;" edge="1" parent="1" source="IWibDeRKFF8vSrctJeQr-142" target="IWibDeRKFF8vSrctJeQr-14">
          <mxGeometry relative="1" as="geometry" />
        </mxCell>
        <mxCell id="IWibDeRKFF8vSrctJeQr-142" value="&lt;font style=&quot;font-size: 20px;&quot;&gt;&lt;b&gt;Commander&lt;/b&gt;&lt;/font&gt;" style="whiteSpace=wrap;html=1;verticalAlign=top;fillColor=#f8cecc;strokeColor=#b85450;rounded=1;" vertex="1" parent="1">
          <mxGeometry x="-1580" y="890" width="120" height="60" as="geometry" />
        </mxCell>
        <mxCell id="IWibDeRKFF8vSrctJeQr-144" value="&lt;br&gt;&lt;b style=&quot;color: rgb(0, 0, 0); font-family: Helvetica; font-size: 20px; font-style: normal; font-variant-ligatures: normal; font-variant-caps: normal; letter-spacing: normal; orphans: 2; text-align: center; text-indent: 0px; text-transform: none; widows: 2; word-spacing: 0px; -webkit-text-stroke-width: 0px; text-decoration-thickness: initial; text-decoration-style: initial; text-decoration-color: initial;&quot;&gt;Commander&lt;/b&gt;&lt;br&gt;" style="whiteSpace=wrap;html=1;verticalAlign=top;fillColor=#f8cecc;strokeColor=#b85450;rounded=1;" vertex="1" parent="1">
          <mxGeometry x="-1440" y="890" width="120" height="60" as="geometry" />
        </mxCell>
        <mxCell id="IWibDeRKFF8vSrctJeQr-146" value="&lt;br&gt;&lt;b style=&quot;color: rgb(0, 0, 0); font-family: Helvetica; font-size: 20px; font-style: normal; font-variant-ligatures: normal; font-variant-caps: normal; letter-spacing: normal; orphans: 2; text-align: center; text-indent: 0px; text-transform: none; widows: 2; word-spacing: 0px; -webkit-text-stroke-width: 0px; text-decoration-thickness: initial; text-decoration-style: initial; text-decoration-color: initial;&quot;&gt;Commander&lt;/b&gt;&lt;br&gt;" style="whiteSpace=wrap;html=1;verticalAlign=top;fillColor=#F8CECC;strokeColor=#B85450;rounded=1;" vertex="1" parent="1">
          <mxGeometry x="-1290" y="890" width="120" height="60" as="geometry" />
        </mxCell>
        <mxCell id="IWibDeRKFF8vSrctJeQr-148" value="&lt;br&gt;&lt;b style=&quot;color: rgb(0, 0, 0); font-family: Helvetica; font-size: 20px; font-style: normal; font-variant-ligatures: normal; font-variant-caps: normal; letter-spacing: normal; orphans: 2; text-align: center; text-indent: 0px; text-transform: none; widows: 2; word-spacing: 0px; -webkit-text-stroke-width: 0px; text-decoration-thickness: initial; text-decoration-style: initial; text-decoration-color: initial;&quot;&gt;Commander&lt;/b&gt;&lt;br&gt;" style="whiteSpace=wrap;html=1;verticalAlign=top;fillColor=#F8CECC;strokeColor=#B85450;fontColor=#333333;rounded=1;fontStyle=1" vertex="1" parent="1">
          <mxGeometry x="-1140" y="890" width="120" height="60" as="geometry" />
        </mxCell>
        <mxCell id="IWibDeRKFF8vSrctJeQr-150" value="&lt;br&gt;&lt;b style=&quot;color: rgb(0, 0, 0); font-family: Helvetica; font-size: 20px; font-style: normal; font-variant-ligatures: normal; font-variant-caps: normal; letter-spacing: normal; orphans: 2; text-align: center; text-indent: 0px; text-transform: none; widows: 2; word-spacing: 0px; -webkit-text-stroke-width: 0px; text-decoration-thickness: initial; text-decoration-style: initial; text-decoration-color: initial;&quot;&gt;Commander&lt;/b&gt;&lt;br&gt;" style="whiteSpace=wrap;html=1;verticalAlign=top;fillColor=#F8CECC;strokeColor=#B85450;fontColor=#333333;rounded=1;" vertex="1" parent="1">
          <mxGeometry x="-980" y="890" width="120" height="60" as="geometry" />
        </mxCell>
        <mxCell id="IWibDeRKFF8vSrctJeQr-152" value="&lt;br&gt;&lt;b style=&quot;color: rgb(0, 0, 0); font-family: Helvetica; font-size: 20px; font-style: normal; font-variant-ligatures: normal; font-variant-caps: normal; letter-spacing: normal; orphans: 2; text-align: center; text-indent: 0px; text-transform: none; widows: 2; word-spacing: 0px; -webkit-text-stroke-width: 0px; text-decoration-thickness: initial; text-decoration-style: initial; text-decoration-color: initial;&quot;&gt;Commander&lt;/b&gt;&lt;br&gt;" style="whiteSpace=wrap;html=1;verticalAlign=top;fillColor=#F8CECC;strokeColor=#B85450;fontColor=#333333;rounded=1;" vertex="1" parent="1">
          <mxGeometry x="-810" y="890" width="120" height="60" as="geometry" />
        </mxCell>
        <mxCell id="IWibDeRKFF8vSrctJeQr-154" value="&lt;br&gt;&lt;b style=&quot;color: rgb(0, 0, 0); font-family: Helvetica; font-size: 20px; font-style: normal; font-variant-ligatures: normal; font-variant-caps: normal; letter-spacing: normal; orphans: 2; text-align: center; text-indent: 0px; text-transform: none; widows: 2; word-spacing: 0px; -webkit-text-stroke-width: 0px; text-decoration-thickness: initial; text-decoration-style: initial; text-decoration-color: initial;&quot;&gt;Commander&lt;/b&gt;&lt;br&gt;" style="whiteSpace=wrap;html=1;verticalAlign=top;fillColor=#F8CECC;strokeColor=#B85450;fontColor=#333333;rounded=1;" vertex="1" parent="1">
          <mxGeometry x="-670" y="890" width="120" height="60" as="geometry" />
        </mxCell>
        <mxCell id="IWibDeRKFF8vSrctJeQr-156" value="&lt;br&gt;&lt;b style=&quot;color: rgb(0, 0, 0); font-family: Helvetica; font-size: 20px; font-style: normal; font-variant-ligatures: normal; font-variant-caps: normal; letter-spacing: normal; orphans: 2; text-align: center; text-indent: 0px; text-transform: none; widows: 2; word-spacing: 0px; -webkit-text-stroke-width: 0px; text-decoration-thickness: initial; text-decoration-style: initial; text-decoration-color: initial;&quot;&gt;Commander&lt;/b&gt;" style="whiteSpace=wrap;html=1;verticalAlign=top;fillColor=#F8CECC;strokeColor=#B85450;fontColor=#333333;rounded=1;" vertex="1" parent="1">
          <mxGeometry x="-500" y="890" width="120" height="60" as="geometry" />
        </mxCell>
        <mxCell id="IWibDeRKFF8vSrctJeQr-158" value="&lt;br&gt;&lt;b style=&quot;color: rgb(0, 0, 0); font-family: Helvetica; font-size: 20px; font-style: normal; font-variant-ligatures: normal; font-variant-caps: normal; letter-spacing: normal; orphans: 2; text-align: center; text-indent: 0px; text-transform: none; widows: 2; word-spacing: 0px; -webkit-text-stroke-width: 0px; text-decoration-thickness: initial; text-decoration-style: initial; text-decoration-color: initial;&quot;&gt;Commander&lt;/b&gt;&lt;br&gt;" style="whiteSpace=wrap;html=1;verticalAlign=top;fillColor=#F8CECC;strokeColor=#B85450;fontColor=#333333;rounded=1;" vertex="1" parent="1">
          <mxGeometry x="-350" y="890" width="120" height="60" as="geometry" />
        </mxCell>
        <mxCell id="IWibDeRKFF8vSrctJeQr-169" style="edgeStyle=orthogonalEdgeStyle;rounded=0;orthogonalLoop=1;jettySize=auto;html=1;entryX=0.25;entryY=0;entryDx=0;entryDy=0;fontSize=20;" edge="1" parent="1" source="IWibDeRKFF8vSrctJeQr-160" target="IWibDeRKFF8vSrctJeQr-14">
          <mxGeometry relative="1" as="geometry" />
        </mxCell>
        <mxCell id="IWibDeRKFF8vSrctJeQr-160" value="&lt;br&gt;&lt;b style=&quot;color: rgb(0, 0, 0); font-family: Helvetica; font-size: 20px; font-style: normal; font-variant-ligatures: normal; font-variant-caps: normal; letter-spacing: normal; orphans: 2; text-align: center; text-indent: 0px; text-transform: none; widows: 2; word-spacing: 0px; -webkit-text-stroke-width: 0px; text-decoration-thickness: initial; text-decoration-style: initial; text-decoration-color: initial;&quot;&gt;Commander&lt;/b&gt;&lt;br&gt;" style="whiteSpace=wrap;html=1;verticalAlign=top;fillColor=#F8CECC;strokeColor=#B85450;fontColor=#333333;rounded=1;" vertex="1" parent="1">
          <mxGeometry x="-180" y="890" width="120" height="60" as="geometry" />
        </mxCell>
        <mxCell id="IWibDeRKFF8vSrctJeQr-184" value="" style="edgeStyle=orthogonalEdgeStyle;rounded=0;orthogonalLoop=1;jettySize=auto;html=1;fontSize=20;" edge="1" parent="1" source="IWibDeRKFF8vSrctJeQr-181" target="IWibDeRKFF8vSrctJeQr-183">
          <mxGeometry relative="1" as="geometry" />
        </mxCell>
        <mxCell id="IWibDeRKFF8vSrctJeQr-181" value="&lt;font style=&quot;font-size: 20px;&quot;&gt;Prise de rdv coaching&amp;nbsp;&lt;/font&gt;" style="whiteSpace=wrap;html=1;verticalAlign=top;fillColor=#f5f5f5;strokeColor=#666666;fontColor=#333333;rounded=1;" vertex="1" parent="1">
          <mxGeometry x="162.5" y="1310" width="120" height="60" as="geometry" />
        </mxCell>
        <mxCell id="IWibDeRKFF8vSrctJeQr-186" value="" style="edgeStyle=orthogonalEdgeStyle;rounded=0;orthogonalLoop=1;jettySize=auto;html=1;fontSize=20;" edge="1" parent="1" source="IWibDeRKFF8vSrctJeQr-183" target="IWibDeRKFF8vSrctJeQr-185">
          <mxGeometry relative="1" as="geometry" />
        </mxCell>
        <mxCell id="IWibDeRKFF8vSrctJeQr-183" value="&lt;font style=&quot;font-size: 20px;&quot;&gt;Calendrier&lt;/font&gt;" style="whiteSpace=wrap;html=1;verticalAlign=top;fillColor=#f5f5f5;strokeColor=#666666;fontColor=#333333;rounded=1;" vertex="1" parent="1">
          <mxGeometry x="162.5" y="1450" width="120" height="60" as="geometry" />
        </mxCell>
        <mxCell id="IWibDeRKFF8vSrctJeQr-187" style="edgeStyle=orthogonalEdgeStyle;rounded=0;orthogonalLoop=1;jettySize=auto;html=1;fontSize=20;" edge="1" parent="1" source="IWibDeRKFF8vSrctJeQr-185" target="IWibDeRKFF8vSrctJeQr-116">
          <mxGeometry relative="1" as="geometry" />
        </mxCell>
        <mxCell id="IWibDeRKFF8vSrctJeQr-185" value="&lt;font style=&quot;font-size: 20px;&quot;&gt;Information de confirmation&amp;nbsp;&lt;/font&gt;" style="whiteSpace=wrap;html=1;verticalAlign=top;fillColor=#f5f5f5;strokeColor=#666666;fontColor=#333333;rounded=1;" vertex="1" parent="1">
          <mxGeometry x="151.25" y="1580" width="142.5" height="80" as="geometry" />
        </mxCell>
        <mxCell id="IWibDeRKFF8vSrctJeQr-190" value="&lt;font style=&quot;font-size: 20px;&quot;&gt;A propos&lt;/font&gt;" style="whiteSpace=wrap;html=1;verticalAlign=top;fillColor=#f5f5f5;strokeColor=#666666;fontColor=#333333;rounded=1;" vertex="1" parent="1">
          <mxGeometry x="1740" y="440" width="120" height="60" as="geometry" />
        </mxCell>
      </root>
    </mxGraphModel>
  </diagram>
</mxfile>
